<mxfile host="app.diagrams.net" modified="2023-09-21T15:23:46.874Z" agent="Mozilla/5.0 (X11; Linux x86_64; rv:109.0) Gecko/20100101 Firefox/114.0" etag="_s7LwKcrnlbvHUD5Hryi" version="21.8.0" type="github">
  <diagram name="Página-1" id="6yxBuxKX0dVRbXHbzNMk">
    <mxGraphModel dx="474" dy="752" grid="1" gridSize="10" guides="1" tooltips="1" connect="1" arrows="1" fold="1" page="1" pageScale="1" pageWidth="1600" pageHeight="900" math="0" shadow="0">
      <root>
        <mxCell id="0" />
        <mxCell id="1" parent="0" />
        <mxCell id="t-S0H3YQURFm8LnUsqbW-4" style="edgeStyle=orthogonalEdgeStyle;rounded=0;orthogonalLoop=1;jettySize=auto;html=1;strokeColor=#FFFFFF;" edge="1" parent="1" source="t-S0H3YQURFm8LnUsqbW-1" target="t-S0H3YQURFm8LnUsqbW-2">
          <mxGeometry relative="1" as="geometry" />
        </mxCell>
        <mxCell id="t-S0H3YQURFm8LnUsqbW-1" value="Inicio" style="strokeWidth=2;html=1;shape=mxgraph.flowchart.start_2;whiteSpace=wrap;fillColor=#A9C4EB;strokeColor=#FFFFFF;" vertex="1" parent="1">
          <mxGeometry x="670" y="10" width="100" height="100" as="geometry" />
        </mxCell>
        <mxCell id="t-S0H3YQURFm8LnUsqbW-10" style="edgeStyle=orthogonalEdgeStyle;rounded=0;orthogonalLoop=1;jettySize=auto;html=1;entryX=0.5;entryY=0;entryDx=0;entryDy=0;strokeColor=#FFFFFF;" edge="1" parent="1" source="t-S0H3YQURFm8LnUsqbW-2" target="t-S0H3YQURFm8LnUsqbW-5">
          <mxGeometry relative="1" as="geometry" />
        </mxCell>
        <mxCell id="t-S0H3YQURFm8LnUsqbW-2" value="&lt;div&gt;N = 0&lt;/div&gt;&lt;div&gt;Suma = 0&lt;br&gt;&lt;/div&gt;" style="rounded=1;whiteSpace=wrap;html=1;absoluteArcSize=1;arcSize=14;strokeWidth=2;fillColor=#FFCCFF;strokeColor=#FFFFFF;" vertex="1" parent="1">
          <mxGeometry x="670" y="140" width="100" height="60" as="geometry" />
        </mxCell>
        <mxCell id="t-S0H3YQURFm8LnUsqbW-11" style="edgeStyle=orthogonalEdgeStyle;rounded=0;orthogonalLoop=1;jettySize=auto;html=1;strokeColor=#FFFFFF;" edge="1" parent="1" source="t-S0H3YQURFm8LnUsqbW-5" target="t-S0H3YQURFm8LnUsqbW-6">
          <mxGeometry relative="1" as="geometry" />
        </mxCell>
        <mxCell id="t-S0H3YQURFm8LnUsqbW-5" value="&lt;div&gt;N = N + 1&lt;/div&gt;&lt;div&gt;Suma = Suma + N&lt;br&gt;&lt;/div&gt;" style="rounded=1;whiteSpace=wrap;html=1;absoluteArcSize=1;arcSize=14;strokeWidth=2;fillColor=#FFCCFF;strokeColor=#FFFFFF;" vertex="1" parent="1">
          <mxGeometry x="665" y="230" width="110" height="60" as="geometry" />
        </mxCell>
        <mxCell id="t-S0H3YQURFm8LnUsqbW-14" style="edgeStyle=orthogonalEdgeStyle;rounded=0;orthogonalLoop=1;jettySize=auto;html=1;strokeColor=#FFFFFF;" edge="1" parent="1" source="t-S0H3YQURFm8LnUsqbW-6">
          <mxGeometry relative="1" as="geometry">
            <mxPoint x="720" y="210" as="targetPoint" />
            <Array as="points">
              <mxPoint x="620" y="370" />
              <mxPoint x="620" y="210" />
            </Array>
          </mxGeometry>
        </mxCell>
        <mxCell id="t-S0H3YQURFm8LnUsqbW-6" value="N = 10" style="strokeWidth=2;html=1;shape=mxgraph.flowchart.decision;whiteSpace=wrap;fillColor=#FFFFCC;strokeColor=#FFFFFF;" vertex="1" parent="1">
          <mxGeometry x="670" y="320" width="100" height="100" as="geometry" />
        </mxCell>
        <mxCell id="t-S0H3YQURFm8LnUsqbW-13" style="edgeStyle=orthogonalEdgeStyle;rounded=0;orthogonalLoop=1;jettySize=auto;html=1;strokeColor=#FFFFFF;" edge="1" parent="1" source="t-S0H3YQURFm8LnUsqbW-7" target="t-S0H3YQURFm8LnUsqbW-9">
          <mxGeometry relative="1" as="geometry" />
        </mxCell>
        <mxCell id="t-S0H3YQURFm8LnUsqbW-7" value="Suma" style="strokeWidth=2;html=1;shape=mxgraph.flowchart.document2;whiteSpace=wrap;size=0.25;fillColor=#CCCCCC;strokeColor=#FFFFFF;" vertex="1" parent="1">
          <mxGeometry x="670" y="455" width="100" height="60" as="geometry" />
        </mxCell>
        <mxCell id="t-S0H3YQURFm8LnUsqbW-9" value="FIN" style="strokeWidth=2;html=1;shape=mxgraph.flowchart.terminator;whiteSpace=wrap;fillColor=#FFFFFF;strokeColor=#FFFFFF;" vertex="1" parent="1">
          <mxGeometry x="670" y="540" width="100" height="60" as="geometry" />
        </mxCell>
        <mxCell id="t-S0H3YQURFm8LnUsqbW-12" style="edgeStyle=orthogonalEdgeStyle;rounded=0;orthogonalLoop=1;jettySize=auto;html=1;entryX=0.5;entryY=0;entryDx=0;entryDy=0;entryPerimeter=0;strokeColor=#FFFFFF;" edge="1" parent="1" source="t-S0H3YQURFm8LnUsqbW-6" target="t-S0H3YQURFm8LnUsqbW-7">
          <mxGeometry relative="1" as="geometry" />
        </mxCell>
        <mxCell id="t-S0H3YQURFm8LnUsqbW-15" value="No" style="text;html=1;align=center;verticalAlign=middle;resizable=0;points=[];autosize=1;strokeColor=none;fillColor=none;" vertex="1" parent="1">
          <mxGeometry x="620" y="330" width="40" height="30" as="geometry" />
        </mxCell>
        <mxCell id="t-S0H3YQURFm8LnUsqbW-16" value="Sí" style="text;html=1;align=center;verticalAlign=middle;resizable=0;points=[];autosize=1;strokeColor=none;fillColor=none;" vertex="1" parent="1">
          <mxGeometry x="730" y="420" width="30" height="30" as="geometry" />
        </mxCell>
      </root>
    </mxGraphModel>
  </diagram>
</mxfile>
